# xmcd
#
# Track frame offsets:
#	150
#	10284
#	24785
#	37564
#	51439
#	64027
#	77462
#	92060
#	103025
#	113044
#	128628
#	141633
#	154686
#	168111
#	178759
#	192332
#	205972
#	219434
#	231070
#	243163
#
# Disc length: 3431 seconds
# Revision: 2
# Processed by: cddbd v1.5.2PL0 Copyright (c) Steve Scherf et al.
# Submitted via: dBpowerAMP V12.0
#
DISCID=fe0d6514
DTITLE=Various Artist - Nothing But the Blues (Disc1)
DYEAR=2012
DGENRE=Blues
TTITLE0=John Lee Hooker - Dimples/John Lee Hooker
TTITLE1=B.B. King - Sweet Little Angel/B.B. King
TTITLE2=Muddy Waters - I Just Want to Make Love to You/Muddy Waters
TTITLE3=Bo Diddley - Before You Accuse Me/Bo Diddley
TTITLE4=Elmore James - The Sky Is Crying/Elmore James
TTITLE5=Bobby'Blue"Bland - Further Up the Road/Bobby'Blue"bland
TTITLE6=Chuck Berry - Mary Christmas Baby/Chuck Berry
TTITLE7=Howlin' Wolf - The Red Rooster/Howlin' Wolf
TTITLE8=Jimmy Red - Ain't That Lovin' You Baby/Jimmy Red
TTITLE9=Albert King - Born Under a Bad Sign/Albert King
TTITLE10=Big Maceo - Worried Life Blues/Big MacEo
TTITLE11=Arthur Big Boy Cruoup - That's All Right/Arthur Big Boy Cruoup
TTITLE12=Eddie Taylor - Big Town Playboy/Eddie Taylor
TTITLE13=Albert Collins - Freeze/Albert Collins
TTITLE14=Jimmy And Walter - Easy/Jimmy and Walter
TTITLE15=T-Bone Walk - Call It Stormy Monday/T-Bone Walk
TTITLE16=Bessie Smith - Nobody Knows You When You're Down and Out/Bessie Smith
TTITLE17=Blind Willie Mctell - Stateshore Blues/Blind Willie McTell
TTITLE18=Eddie Boyd - Five Long Years/Eddie Oyd
TTITLE19=Ida Cox - Death Letter Blues/Ida Cox
EXTD=
EXTT0=
EXTT1=
EXTT2=
EXTT3=
EXTT4=
EXTT5=
EXTT6=
EXTT7=
EXTT8=
EXTT9=
EXTT10=
EXTT11=
EXTT12=
EXTT13=
EXTT14=
EXTT15=
EXTT16=
EXTT17=
EXTT18=
EXTT19=
PLAYORDER=
